<svg width="396" height="200" viewBox="0 0 396 50" fill="none" xmlns="http://www.w3.org/2000/svg">
<path d="M0.248 2.176H18.168C20.728 2.176 23.0747 2.70933 25.208 3.776C27.384 4.84267 29.0907 6.29333 30.328 8.128C31.5653 9.96266 32.184 11.968 32.184 14.144C32.184 16.448 31.608 18.4533 30.456 20.16C29.3467 21.824 27.8747 23.104 26.04 24V24.512C28.4293 25.3653 30.328 26.7307 31.736 28.608C33.144 30.4427 33.848 32.6613 33.848 35.264C33.848 37.7813 33.1653 40.0213 31.8 41.984C30.4773 43.904 28.664 45.3973 26.36 46.464C24.0987 47.488 21.5813 48 18.808 48H0.248V2.176ZM17.528 20.864C19.4053 20.864 20.8987 20.352 22.008 19.328C23.16 18.2613 23.736 16.9387 23.736 15.36C23.736 13.824 23.1813 12.544 22.072 11.52C21.0053 10.4533 19.576 9.92 17.784 9.92H8.888V20.864H17.528ZM18.488 40.128C20.5787 40.128 22.2 39.5947 23.352 38.528C24.5467 37.4187 25.144 35.9893 25.144 34.24C25.144 32.4907 24.5467 31.0613 23.352 29.952C22.1573 28.8427 20.4507 28.288 18.232 28.288H8.888V40.128H18.488ZM56.1495 49.024C52.7788 49.024 49.7708 48.2773 47.1255 46.784C44.4802 45.248 42.4108 43.1787 40.9175 40.576C39.4668 37.9307 38.7415 34.9653 38.7415 31.68C38.7415 28.4373 39.4668 25.4933 40.9175 22.848C42.4108 20.2027 44.4802 18.1333 47.1255 16.64C49.7708 15.104 52.7788 14.336 56.1495 14.336C59.4775 14.336 62.4642 15.104 65.1095 16.64C67.7548 18.1333 69.8028 20.2027 71.2535 22.848C72.7468 25.4933 73.4935 28.4373 73.4935 31.68C73.4935 34.9653 72.7468 37.9307 71.2535 40.576C69.8028 43.1787 67.7548 45.248 65.1095 46.784C62.4642 48.2773 59.4775 49.024 56.1495 49.024ZM56.1495 41.28C57.7708 41.28 59.2642 40.896 60.6295 40.128C61.9948 39.36 63.0828 38.2507 63.8935 36.8C64.7042 35.3493 65.1095 33.6427 65.1095 31.68C65.1095 29.76 64.7042 28.0747 63.8935 26.624C63.0828 25.1733 61.9948 24.064 60.6295 23.296C59.2642 22.528 57.7708 22.144 56.1495 22.144C54.5282 22.144 53.0348 22.528 51.6695 23.296C50.3042 24.064 49.1948 25.1733 48.3415 26.624C47.5308 28.0747 47.1255 29.76 47.1255 31.68C47.1255 33.6 47.5308 35.3067 48.3415 36.8C49.1948 38.2507 50.3042 39.36 51.6695 40.128C53.0348 40.896 54.5282 41.28 56.1495 41.28ZM95.5245 49.024C92.1538 49.024 89.1458 48.2773 86.5005 46.784C83.8552 45.248 81.7858 43.1787 80.2925 40.576C78.8418 37.9307 78.1165 34.9653 78.1165 31.68C78.1165 28.4373 78.8418 25.4933 80.2925 22.848C81.7858 20.2027 83.8552 18.1333 86.5005 16.64C89.1458 15.104 92.1538 14.336 95.5245 14.336C98.8525 14.336 101.839 15.104 104.485 16.64C107.13 18.1333 109.178 20.2027 110.629 22.848C112.122 25.4933 112.869 28.4373 112.869 31.68C112.869 34.9653 112.122 37.9307 110.629 40.576C109.178 43.1787 107.13 45.248 104.485 46.784C101.839 48.2773 98.8525 49.024 95.5245 49.024ZM95.5245 41.28C97.1458 41.28 98.6392 40.896 100.005 40.128C101.37 39.36 102.458 38.2507 103.269 36.8C104.079 35.3493 104.485 33.6427 104.485 31.68C104.485 29.76 104.079 28.0747 103.269 26.624C102.458 25.1733 101.37 24.064 100.005 23.296C98.6392 22.528 97.1458 22.144 95.5245 22.144C93.9032 22.144 92.4098 22.528 91.0445 23.296C89.6792 24.064 88.5698 25.1733 87.7165 26.624C86.9058 28.0747 86.5005 29.76 86.5005 31.68C86.5005 33.6 86.9058 35.3067 87.7165 36.8C88.5698 38.2507 89.6792 39.36 91.0445 40.128C92.4098 40.896 93.9032 41.28 95.5245 41.28ZM131.387 49.024C127.419 49.024 124.198 48.2133 121.723 46.592C119.291 44.9707 117.584 42.8587 116.603 40.256L124.091 36.992C124.774 38.528 125.734 39.7013 126.971 40.512C128.251 41.28 129.723 41.664 131.387 41.664C132.923 41.664 134.203 41.4293 135.227 40.96C136.251 40.448 136.763 39.6373 136.763 38.528C136.763 37.4613 136.294 36.672 135.355 36.16C134.416 35.6053 133.008 35.1147 131.131 34.688L127.291 33.856C124.646 33.216 122.448 32.064 120.699 30.4C118.95 28.6933 118.075 26.5813 118.075 24.064C118.075 22.1867 118.63 20.5013 119.739 19.008C120.891 17.5147 122.427 16.3627 124.347 15.552C126.31 14.7413 128.464 14.336 130.811 14.336C137.552 14.336 142.054 16.704 144.315 21.44L137.147 24.576C135.867 22.272 133.819 21.12 131.003 21.12C129.552 21.12 128.4 21.3973 127.547 21.952C126.694 22.464 126.267 23.1253 126.267 23.936C126.267 25.472 127.718 26.624 130.619 27.392L135.419 28.544C138.662 29.3547 141.094 30.592 142.715 32.256C144.379 33.92 145.211 35.968 145.211 38.4C145.211 40.4907 144.592 42.3467 143.355 43.968C142.16 45.5467 140.496 46.784 138.363 47.68C136.272 48.576 133.947 49.024 131.387 49.024ZM165.179 48.512C163.558 48.512 162.064 48.2773 160.699 47.808C159.334 47.296 158.224 46.6133 157.371 45.76C155.366 43.84 154.363 41.1093 154.363 37.568V22.528H148.667V15.36H154.363V6.144H162.747V15.36H170.747V22.528H162.747V36.032C162.747 37.696 163.11 38.8907 163.835 39.616C164.432 40.2987 165.456 40.64 166.907 40.64C167.718 40.64 168.379 40.5333 168.891 40.32C169.446 40.1067 170.15 39.744 171.003 39.232V47.424C169.168 48.1493 167.227 48.512 165.179 48.512ZM191.892 49.024C188.649 49.024 185.727 48.2773 183.124 46.784C180.521 45.2907 178.473 43.2427 176.98 40.64C175.529 37.9947 174.804 35.0293 174.804 31.744C174.804 28.6293 175.529 25.7493 176.98 23.104C178.431 20.416 180.436 18.2827 182.996 16.704C185.556 15.1253 188.415 14.336 191.572 14.336C194.943 14.336 197.844 15.0613 200.276 16.512C202.708 17.9627 204.543 19.9467 205.78 22.464C207.06 24.9813 207.7 27.776 207.7 30.848C207.7 31.8293 207.636 32.768 207.508 33.664H182.996C183.423 36.2667 184.447 38.2507 186.068 39.616C187.732 40.9387 189.716 41.6 192.02 41.6C193.94 41.6 195.583 41.1947 196.948 40.384C198.356 39.5307 199.465 38.4 200.276 36.992L207.06 40.32C203.732 46.1227 198.676 49.024 191.892 49.024ZM199.636 27.712C199.551 26.688 199.167 25.6853 198.484 24.704C197.844 23.68 196.927 22.848 195.732 22.208C194.58 21.5253 193.215 21.184 191.636 21.184C189.631 21.184 187.903 21.7813 186.452 22.976C185.044 24.128 184.02 25.7067 183.38 27.712H199.636ZM214.159 15.36H222.031V19.712H222.543C223.353 18.176 224.612 16.9173 226.319 15.936C228.025 14.912 229.903 14.4 231.951 14.4C233.444 14.4 234.809 14.6347 236.047 15.104V23.488C234.895 23.0613 233.913 22.7627 233.103 22.592C232.335 22.3787 231.503 22.272 230.607 22.272C228.132 22.272 226.169 23.168 224.719 24.96C223.268 26.752 222.543 29.0133 222.543 31.744V48H214.159V15.36ZM241.471 15.36H249.343V19.456H249.855C250.836 17.8773 252.223 16.64 254.015 15.744C255.807 14.8053 257.748 14.336 259.839 14.336C263.764 14.336 266.751 15.5307 268.799 17.92C270.847 20.3093 271.871 23.5733 271.871 27.712V48H263.487V28.736C263.487 26.6453 262.954 25.024 261.887 23.872C260.82 22.72 259.327 22.144 257.407 22.144C255.146 22.144 253.311 23.0187 251.903 24.768C250.538 26.5173 249.855 28.7147 249.855 31.36V48H241.471V15.36ZM295.08 49.024C291.837 49.024 288.914 48.2773 286.312 46.784C283.709 45.2907 281.661 43.2427 280.168 40.64C278.717 37.9947 277.992 35.0293 277.992 31.744C277.992 28.6293 278.717 25.7493 280.168 23.104C281.618 20.416 283.624 18.2827 286.184 16.704C288.744 15.1253 291.602 14.336 294.76 14.336C298.13 14.336 301.032 15.0613 303.464 16.512C305.896 17.9627 307.73 19.9467 308.968 22.464C310.248 24.9813 310.888 27.776 310.888 30.848C310.888 31.8293 310.824 32.768 310.696 33.664H286.184C286.61 36.2667 287.634 38.2507 289.256 39.616C290.92 40.9387 292.904 41.6 295.208 41.6C297.128 41.6 298.77 41.1947 300.136 40.384C301.544 39.5307 302.653 38.4 303.464 36.992L310.248 40.32C306.92 46.1227 301.864 49.024 295.08 49.024ZM302.824 27.712C302.738 26.688 302.354 25.6853 301.672 24.704C301.032 23.68 300.114 22.848 298.92 22.208C297.768 21.5253 296.402 21.184 294.824 21.184C292.818 21.184 291.09 21.7813 289.64 22.976C288.232 24.128 287.208 25.7067 286.568 27.712H302.824ZM330.075 49.024C326.107 49.024 322.885 48.2133 320.411 46.592C317.979 44.9707 316.272 42.8587 315.291 40.256L322.779 36.992C323.461 38.528 324.421 39.7013 325.659 40.512C326.939 41.28 328.411 41.664 330.075 41.664C331.611 41.664 332.891 41.4293 333.915 40.96C334.939 40.448 335.451 39.6373 335.451 38.528C335.451 37.4613 334.981 36.672 334.043 36.16C333.104 35.6053 331.696 35.1147 329.819 34.688L325.979 33.856C323.333 33.216 321.136 32.064 319.387 30.4C317.637 28.6933 316.763 26.5813 316.763 24.064C316.763 22.1867 317.317 20.5013 318.427 19.008C319.579 17.5147 321.115 16.3627 323.035 15.552C324.997 14.7413 327.152 14.336 329.499 14.336C336.24 14.336 340.741 16.704 343.003 21.44L335.835 24.576C334.555 22.272 332.507 21.12 329.691 21.12C328.24 21.12 327.088 21.3973 326.235 21.952C325.381 22.464 324.955 23.1253 324.955 23.936C324.955 25.472 326.405 26.624 329.307 27.392L334.107 28.544C337.349 29.3547 339.781 30.592 341.403 32.256C343.067 33.92 343.899 35.968 343.899 38.4C343.899 40.4907 343.28 42.3467 342.043 43.968C340.848 45.5467 339.184 46.784 337.051 47.68C334.96 48.576 332.635 49.024 330.075 49.024ZM354.395 11.776C352.901 11.776 351.621 11.2427 350.555 10.176C349.488 9.10933 348.955 7.82933 348.955 6.336C348.955 4.84266 349.488 3.584 350.555 2.56C351.621 1.49333 352.901 0.959999 354.395 0.959999C355.888 0.959999 357.147 1.49333 358.171 2.56C359.237 3.584 359.771 4.84266 359.771 6.336C359.771 7.82933 359.237 9.10933 358.171 10.176C357.147 11.2427 355.888 11.776 354.395 11.776ZM350.171 15.36H358.555V48H350.171V15.36ZM377.018 49.024C373.562 49.024 370.724 48.0213 368.506 46.016C366.287 43.968 365.178 41.3013 365.178 38.016C365.178 35.84 365.754 33.92 366.906 32.256C368.058 30.592 369.636 29.312 371.642 28.416C373.647 27.52 375.866 27.072 378.298 27.072C381.668 27.072 384.548 27.5627 386.938 28.544V27.136C386.938 25.344 386.255 23.8933 384.89 22.784C383.567 21.6747 381.775 21.12 379.514 21.12C377.978 21.12 376.484 21.4827 375.034 22.208C373.626 22.8907 372.452 23.808 371.514 24.96L366.138 20.736C367.716 18.688 369.7 17.1093 372.09 16C374.479 14.8907 377.082 14.336 379.898 14.336C384.89 14.336 388.687 15.488 391.29 17.792C393.892 20.096 395.194 23.4667 395.194 27.904V48H386.938V44.672H386.426C385.444 45.952 384.143 46.9973 382.522 47.808C380.943 48.6187 379.108 49.024 377.018 49.024ZM379.002 42.496C381.434 42.496 383.354 41.728 384.762 40.192C386.212 38.6133 386.938 36.7787 386.938 34.688C384.762 33.664 382.479 33.152 380.09 33.152C375.738 33.152 373.562 34.7733 373.562 38.016C373.562 39.3387 374.031 40.4267 374.97 41.28C375.908 42.0907 377.252 42.496 379.002 42.496Z" fill="white"/>
</svg>
