<svg width="556" height="63" viewBox="0 0 556 63" fill="none" xmlns="http://www.w3.org/2000/svg">
<path d="M25.136 49.024C20.7413 49.024 16.688 48 12.976 45.952C9.30667 43.8613 6.384 41.0027 4.208 37.376C2.032 33.7067 0.944 29.6107 0.944 25.088C0.944 20.5653 2.032 16.4907 4.208 12.864C6.384 9.19466 9.30667 6.336 12.976 4.288C16.688 2.19733 20.7413 1.152 25.136 1.152C28.72 1.152 31.984 1.792 34.928 3.072C37.9147 4.30933 40.4747 6.08 42.608 8.384L36.656 14.208C35.12 12.5867 33.4133 11.3707 31.536 10.56C29.7013 9.74933 27.5467 9.344 25.072 9.344C22.256 9.344 19.6747 10.0053 17.328 11.328C14.9813 12.608 13.104 14.464 11.696 16.896C10.3307 19.2853 9.648 22.016 9.648 25.088C9.648 28.16 10.352 30.912 11.76 33.344C13.168 35.7333 15.0453 37.5893 17.392 38.912C19.7813 40.192 22.384 40.832 25.2 40.832C29.4667 40.832 32.9653 39.5733 35.696 37.056C36.5493 36.288 37.296 35.3067 37.936 34.112C38.576 32.9173 39.0453 31.616 39.344 30.208H24.944V22.848H47.408C47.7067 24.0427 47.856 25.3867 47.856 26.88C47.856 29.9093 47.3867 32.7253 46.448 35.328C45.552 37.9307 44.1653 40.2133 42.288 42.176C40.24 44.3947 37.7653 46.1013 34.864 47.296C31.9627 48.448 28.72 49.024 25.136 49.024ZM56.123 2.176H71.611C76.3897 2.176 80.5497 3.136 84.091 5.056C87.6323 6.976 90.363 9.664 92.283 13.12C94.203 16.576 95.163 20.5653 95.163 25.088C95.163 29.6107 94.203 33.6 92.283 37.056C90.363 40.512 87.6323 43.2 84.091 45.12C80.5497 47.04 76.3897 48 71.611 48H56.123V2.176ZM71.227 39.808C76.1763 39.808 79.9523 38.5067 82.555 35.904C85.1577 33.2587 86.459 29.6533 86.459 25.088C86.459 20.5227 85.1577 16.9387 82.555 14.336C79.9523 11.6907 76.1763 10.368 71.227 10.368H64.763V39.808H71.227ZM125.261 49.024C120.866 49.024 116.813 48 113.101 45.952C109.432 43.8613 106.509 41.0027 104.333 37.376C102.157 33.7067 101.069 29.6107 101.069 25.088C101.069 20.5653 102.157 16.4907 104.333 12.864C106.509 9.19466 109.432 6.336 113.101 4.288C116.813 2.19733 120.866 1.152 125.261 1.152C128.845 1.152 132.109 1.792 135.053 3.072C138.04 4.30933 140.6 6.08 142.733 8.384L136.781 14.208C135.245 12.5867 133.538 11.3707 131.661 10.56C129.826 9.74933 127.672 9.344 125.197 9.344C122.381 9.344 119.8 10.0053 117.453 11.328C115.106 12.608 113.229 14.464 111.821 16.896C110.456 19.2853 109.773 22.016 109.773 25.088C109.773 28.16 110.477 30.912 111.885 33.344C113.293 35.7333 115.17 37.5893 117.517 38.912C119.906 40.192 122.509 40.832 125.325 40.832C129.592 40.832 133.09 39.5733 135.821 37.056C136.674 36.288 137.421 35.3067 138.061 34.112C138.701 32.9173 139.17 31.616 139.469 30.208H125.069V22.848H147.533C147.832 24.0427 147.981 25.3867 147.981 26.88C147.981 29.9093 147.512 32.7253 146.573 35.328C145.677 37.9307 144.29 40.2133 142.413 42.176C140.365 44.3947 137.89 46.1013 134.989 47.296C132.088 48.448 128.845 49.024 125.261 49.024ZM170.4 49.024C167.029 49.024 164.021 48.2773 161.376 46.784C158.73 45.248 156.661 43.1787 155.168 40.576C153.717 37.9307 152.992 34.9653 152.992 31.68C152.992 28.4373 153.717 25.4933 155.168 22.848C156.661 20.2027 158.73 18.1333 161.376 16.64C164.021 15.104 167.029 14.336 170.4 14.336C173.728 14.336 176.714 15.104 179.36 16.64C182.005 18.1333 184.053 20.2027 185.504 22.848C186.997 25.4933 187.744 28.4373 187.744 31.68C187.744 34.9653 186.997 37.9307 185.504 40.576C184.053 43.1787 182.005 45.248 179.36 46.784C176.714 48.2773 173.728 49.024 170.4 49.024ZM170.4 41.28C172.021 41.28 173.514 40.896 174.88 40.128C176.245 39.36 177.333 38.2507 178.144 36.8C178.954 35.3493 179.36 33.6427 179.36 31.68C179.36 29.76 178.954 28.0747 178.144 26.624C177.333 25.1733 176.245 24.064 174.88 23.296C173.514 22.528 172.021 22.144 170.4 22.144C168.778 22.144 167.285 22.528 165.92 23.296C164.554 24.064 163.445 25.1733 162.592 26.624C161.781 28.0747 161.376 29.76 161.376 31.68C161.376 33.6 161.781 35.3067 162.592 36.8C163.445 38.2507 164.554 39.36 165.92 40.128C167.285 40.896 168.778 41.28 170.4 41.28ZM217.007 49.024C212.569 49.024 208.516 47.9787 204.847 45.888C201.177 43.7547 198.276 40.8747 196.143 37.248C194.052 33.5787 193.007 29.5253 193.007 25.088C193.007 20.6507 194.052 16.6187 196.143 12.992C198.276 9.32266 201.177 6.44267 204.847 4.352C208.516 2.21866 212.569 1.152 217.007 1.152C223.919 1.152 229.636 3.648 234.159 8.64L228.079 14.528C225.135 11.072 221.465 9.344 217.071 9.344C214.212 9.344 211.609 10.0053 209.263 11.328C206.916 12.608 205.06 14.4427 203.695 16.832C202.372 19.2213 201.711 21.9733 201.711 25.088C201.711 28.2027 202.372 30.9547 203.695 33.344C205.06 35.7333 206.916 37.5893 209.263 38.912C211.609 40.192 214.212 40.832 217.071 40.832C221.892 40.832 225.924 38.8267 229.167 34.816L235.311 40.64C233.049 43.3707 230.361 45.4613 227.247 46.912C224.175 48.32 220.761 49.024 217.007 49.024ZM265.028 10.368H252.228V2.176H286.468V10.368H273.668V48H265.028V10.368ZM288.409 15.36H296.281V19.712H296.793C297.603 18.176 298.862 16.9173 300.569 15.936C302.275 14.912 304.153 14.4 306.201 14.4C307.694 14.4 309.059 14.6347 310.297 15.104V23.488C309.145 23.0613 308.163 22.7627 307.353 22.592C306.585 22.3787 305.753 22.272 304.857 22.272C302.382 22.272 300.419 23.168 298.969 24.96C297.518 26.752 296.793 29.0133 296.793 31.744V48H288.409V15.36ZM327.497 49.024C323.572 49.024 320.585 47.808 318.537 45.376C316.489 42.944 315.465 39.552 315.465 35.2V15.36H323.849V34.176C323.849 36.3947 324.382 38.144 325.449 39.424C326.516 40.6613 327.924 41.28 329.673 41.28C332.062 41.28 333.961 40.4053 335.369 38.656C336.777 36.9067 337.481 34.688 337.481 32V15.36H345.865V48H337.993V43.904H337.481C336.5 45.4827 335.113 46.7413 333.321 47.68C331.572 48.576 329.63 49.024 327.497 49.024ZM354.034 15.36H361.906V19.456H362.418C363.399 17.8773 364.786 16.64 366.578 15.744C368.37 14.8053 370.311 14.336 372.402 14.336C376.327 14.336 379.314 15.5307 381.362 17.92C383.41 20.3093 384.434 23.5733 384.434 27.712V48H376.05V28.736C376.05 26.6453 375.516 25.024 374.45 23.872C373.383 22.72 371.89 22.144 369.97 22.144C367.708 22.144 365.874 23.0187 364.466 24.768C363.1 26.5173 362.418 28.7147 362.418 31.36V48H354.034V15.36ZM407.962 49.024C404.591 49.024 401.583 48.2773 398.938 46.784C396.293 45.248 394.223 43.1787 392.73 40.576C391.279 37.9307 390.554 34.9653 390.554 31.68C390.554 28.4373 391.279 25.4933 392.73 22.848C394.223 20.2027 396.293 18.1333 398.938 16.64C401.583 15.104 404.591 14.336 407.962 14.336C411.29 14.336 414.277 15.104 416.922 16.64C419.567 18.1333 421.615 20.2027 423.066 22.848C424.559 25.4933 425.306 28.4373 425.306 31.68C425.306 34.9653 424.559 37.9307 423.066 40.576C421.615 43.1787 419.567 45.248 416.922 46.784C414.277 48.2773 411.29 49.024 407.962 49.024ZM407.962 41.28C409.583 41.28 411.077 40.896 412.442 40.128C413.807 39.36 414.895 38.2507 415.706 36.8C416.517 35.3493 416.922 33.6427 416.922 31.68C416.922 29.76 416.517 28.0747 415.706 26.624C414.895 25.1733 413.807 24.064 412.442 23.296C411.077 22.528 409.583 22.144 407.962 22.144C406.341 22.144 404.847 22.528 403.482 23.296C402.117 24.064 401.007 25.1733 400.154 26.624C399.343 28.0747 398.938 29.76 398.938 31.68C398.938 33.6 399.343 35.3067 400.154 36.8C401.007 38.2507 402.117 39.36 403.482 40.128C404.847 40.896 406.341 41.28 407.962 41.28ZM436.145 11.776C434.651 11.776 433.371 11.2427 432.305 10.176C431.238 9.10933 430.705 7.82933 430.705 6.336C430.705 4.84266 431.238 3.584 432.305 2.56C433.371 1.49333 434.651 0.959999 436.145 0.959999C437.638 0.959999 438.897 1.49333 439.921 2.56C440.987 3.584 441.521 4.84266 441.521 6.336C441.521 7.82933 440.987 9.10933 439.921 10.176C438.897 11.2427 437.638 11.776 436.145 11.776ZM430.001 62.464C428.294 62.464 426.843 62.3147 425.648 62.016V53.888C426.758 54.4853 427.889 54.784 429.041 54.784C430.065 54.784 430.79 54.464 431.217 53.824C431.686 53.2267 431.921 52.288 431.921 51.008V15.36H440.305V51.2C440.305 55.04 439.345 57.8773 437.425 59.712C435.505 61.5467 433.03 62.464 430.001 62.464ZM464.4 49.024C461.029 49.024 458.021 48.2773 455.376 46.784C452.73 45.248 450.661 43.1787 449.168 40.576C447.717 37.9307 446.992 34.9653 446.992 31.68C446.992 28.4373 447.717 25.4933 449.168 22.848C450.661 20.2027 452.73 18.1333 455.376 16.64C458.021 15.104 461.029 14.336 464.4 14.336C467.728 14.336 470.714 15.104 473.36 16.64C476.005 18.1333 478.053 20.2027 479.504 22.848C480.997 25.4933 481.744 28.4373 481.744 31.68C481.744 34.9653 480.997 37.9307 479.504 40.576C478.053 43.1787 476.005 45.248 473.36 46.784C470.714 48.2773 467.728 49.024 464.4 49.024ZM464.4 41.28C466.021 41.28 467.514 40.896 468.88 40.128C470.245 39.36 471.333 38.2507 472.144 36.8C472.954 35.3493 473.36 33.6427 473.36 31.68C473.36 29.76 472.954 28.0747 472.144 26.624C471.333 25.1733 470.245 24.064 468.88 23.296C467.514 22.528 466.021 22.144 464.4 22.144C462.778 22.144 461.285 22.528 459.92 23.296C458.554 24.064 457.445 25.1733 456.592 26.624C455.781 28.0747 455.376 29.76 455.376 31.68C455.376 33.6 455.781 35.3067 456.592 36.8C457.445 38.2507 458.554 39.36 459.92 40.128C461.285 40.896 462.778 41.28 464.4 41.28ZM497.085 46.464L483.325 15.36H492.861L501.309 35.648H501.821L509.949 15.36H519.293L499.133 61.824H490.109L497.085 46.464ZM538.275 49.024C534.904 49.024 531.896 48.2773 529.251 46.784C526.605 45.248 524.536 43.1787 523.043 40.576C521.592 37.9307 520.867 34.9653 520.867 31.68C520.867 28.4373 521.592 25.4933 523.043 22.848C524.536 20.2027 526.605 18.1333 529.251 16.64C531.896 15.104 534.904 14.336 538.275 14.336C541.603 14.336 544.589 15.104 547.235 16.64C549.88 18.1333 551.928 20.2027 553.379 22.848C554.872 25.4933 555.619 28.4373 555.619 31.68C555.619 34.9653 554.872 37.9307 553.379 40.576C551.928 43.1787 549.88 45.248 547.235 46.784C544.589 48.2773 541.603 49.024 538.275 49.024ZM538.275 41.28C539.896 41.28 541.389 40.896 542.755 40.128C544.12 39.36 545.208 38.2507 546.019 36.8C546.829 35.3493 547.235 33.6427 547.235 31.68C547.235 29.76 546.829 28.0747 546.019 26.624C545.208 25.1733 544.12 24.064 542.755 23.296C541.389 22.528 539.896 22.144 538.275 22.144C536.653 22.144 535.16 22.528 533.795 23.296C532.429 24.064 531.32 25.1733 530.467 26.624C529.656 28.0747 529.251 29.76 529.251 31.68C529.251 33.6 529.656 35.3067 530.467 36.8C531.32 38.2507 532.429 39.36 533.795 40.128C535.16 40.896 536.653 41.28 538.275 41.28Z" fill="white"/>
</svg>
