<svg width="374" height="50" viewBox="0 0 374 50" fill="none" xmlns="http://www.w3.org/2000/svg">
<path d="M0.248 2.176H11.384L23.544 34.368H24.056L36.216 2.176H47.416V48H38.84V25.408L39.352 17.792H38.84L27.192 48H20.472L8.76 17.792H8.248L8.76 25.408V48H0.248V2.176ZM65.7675 49.024C62.3115 49.024 59.4742 48.0213 57.2555 46.016C55.0368 43.968 53.9275 41.3013 53.9275 38.016C53.9275 35.84 54.5035 33.92 55.6555 32.256C56.8075 30.592 58.3862 29.312 60.3915 28.416C62.3968 27.52 64.6155 27.072 67.0475 27.072C70.4182 27.072 73.2982 27.5627 75.6875 28.544V27.136C75.6875 25.344 75.0048 23.8933 73.6395 22.784C72.3168 21.6747 70.5248 21.12 68.2635 21.12C66.7275 21.12 65.2342 21.4827 63.7835 22.208C62.3755 22.8907 61.2022 23.808 60.2635 24.96L54.8875 20.736C56.4662 18.688 58.4502 17.1093 60.8395 16C63.2288 14.8907 65.8315 14.336 68.6475 14.336C73.6395 14.336 77.4368 15.488 80.0395 17.792C82.6422 20.096 83.9435 23.4667 83.9435 27.904V48H75.6875V44.672H75.1755C74.1942 45.952 72.8928 46.9973 71.2715 47.808C69.6928 48.6187 67.8582 49.024 65.7675 49.024ZM67.7515 42.496C70.1835 42.496 72.1035 41.728 73.5115 40.192C74.9622 38.6133 75.6875 36.7787 75.6875 34.688C73.5115 33.664 71.2288 33.152 68.8395 33.152C64.4875 33.152 62.3115 34.7733 62.3115 38.016C62.3115 39.3387 62.7808 40.4267 63.7195 41.28C64.6582 42.0907 66.0022 42.496 67.7515 42.496ZM91.6585 15.36H99.5305V19.456H100.043C101.024 17.8773 102.411 16.64 104.203 15.744C105.995 14.8053 107.936 14.336 110.027 14.336C113.952 14.336 116.939 15.5307 118.987 17.92C121.035 20.3093 122.059 23.5733 122.059 27.712V48H113.675V28.736C113.675 26.6453 113.141 25.024 112.075 23.872C111.008 22.72 109.515 22.144 107.595 22.144C105.333 22.144 103.499 23.0187 102.091 24.768C100.725 26.5173 100.043 28.7147 100.043 31.36V48H91.6585V15.36ZM141.747 49.024C137.822 49.024 134.835 47.808 132.787 45.376C130.739 42.944 129.715 39.552 129.715 35.2V15.36H138.099V34.176C138.099 36.3947 138.632 38.144 139.699 39.424C140.766 40.6613 142.174 41.28 143.923 41.28C146.312 41.28 148.211 40.4053 149.619 38.656C151.027 36.9067 151.731 34.688 151.731 32V15.36H160.115V48H152.243V43.904H151.731C150.75 45.4827 149.363 46.7413 147.571 47.68C145.822 48.576 143.88 49.024 141.747 49.024ZM180.387 49.024C176.419 49.024 173.198 48.2133 170.723 46.592C168.291 44.9707 166.584 42.8587 165.603 40.256L173.091 36.992C173.774 38.528 174.734 39.7013 175.971 40.512C177.251 41.28 178.723 41.664 180.387 41.664C181.923 41.664 183.203 41.4293 184.227 40.96C185.251 40.448 185.763 39.6373 185.763 38.528C185.763 37.4613 185.294 36.672 184.355 36.16C183.416 35.6053 182.008 35.1147 180.131 34.688L176.291 33.856C173.646 33.216 171.448 32.064 169.699 30.4C167.95 28.6933 167.075 26.5813 167.075 24.064C167.075 22.1867 167.63 20.5013 168.739 19.008C169.891 17.5147 171.427 16.3627 173.347 15.552C175.31 14.7413 177.464 14.336 179.811 14.336C186.552 14.336 191.054 16.704 193.315 21.44L186.147 24.576C184.867 22.272 182.819 21.12 180.003 21.12C178.552 21.12 177.4 21.3973 176.547 21.952C175.694 22.464 175.267 23.1253 175.267 23.936C175.267 25.472 176.718 26.624 179.619 27.392L184.419 28.544C187.662 29.3547 190.094 30.592 191.715 32.256C193.379 33.92 194.211 35.968 194.211 38.4C194.211 40.4907 193.592 42.3467 192.355 43.968C191.16 45.5467 189.496 46.784 187.363 47.68C185.272 48.576 182.947 49.024 180.387 49.024ZM204.707 11.776C203.214 11.776 201.934 11.2427 200.867 10.176C199.8 9.10933 199.267 7.82933 199.267 6.336C199.267 4.84266 199.8 3.584 200.867 2.56C201.934 1.49333 203.214 0.959999 204.707 0.959999C206.2 0.959999 207.459 1.49333 208.483 2.56C209.55 3.584 210.083 4.84266 210.083 6.336C210.083 7.82933 209.55 9.10933 208.483 10.176C207.459 11.2427 206.2 11.776 204.707 11.776ZM200.483 15.36H208.867V48H200.483V15.36ZM227.33 49.024C223.874 49.024 221.037 48.0213 218.818 46.016C216.599 43.968 215.49 41.3013 215.49 38.016C215.49 35.84 216.066 33.92 217.218 32.256C218.37 30.592 219.949 29.312 221.954 28.416C223.959 27.52 226.178 27.072 228.61 27.072C231.981 27.072 234.861 27.5627 237.25 28.544V27.136C237.25 25.344 236.567 23.8933 235.202 22.784C233.879 21.6747 232.087 21.12 229.826 21.12C228.29 21.12 226.797 21.4827 225.346 22.208C223.938 22.8907 222.765 23.808 221.826 24.96L216.45 20.736C218.029 18.688 220.013 17.1093 222.402 16C224.791 14.8907 227.394 14.336 230.21 14.336C235.202 14.336 238.999 15.488 241.602 17.792C244.205 20.096 245.506 23.4667 245.506 27.904V48H237.25V44.672H236.738C235.757 45.952 234.455 46.9973 232.834 47.808C231.255 48.6187 229.421 49.024 227.33 49.024ZM229.314 42.496C231.746 42.496 233.666 41.728 235.074 40.192C236.525 38.6133 237.25 36.7787 237.25 34.688C235.074 33.664 232.791 33.152 230.402 33.152C226.05 33.152 223.874 34.7733 223.874 38.016C223.874 39.3387 224.343 40.4267 225.282 41.28C226.221 42.0907 227.565 42.496 229.314 42.496ZM280.3 2.176H290.22L307.436 48H297.9L294.06 37.056H276.524L272.684 48H263.148L280.3 2.176ZM291.244 29.12L287.212 17.6L285.548 12.096H285.036L283.372 17.6L279.276 29.12H291.244ZM324.887 49.024C320.919 49.024 317.698 48.2133 315.223 46.592C312.791 44.9707 311.084 42.8587 310.103 40.256L317.591 36.992C318.274 38.528 319.234 39.7013 320.471 40.512C321.751 41.28 323.223 41.664 324.887 41.664C326.423 41.664 327.703 41.4293 328.727 40.96C329.751 40.448 330.263 39.6373 330.263 38.528C330.263 37.4613 329.794 36.672 328.855 36.16C327.916 35.6053 326.508 35.1147 324.631 34.688L320.791 33.856C318.146 33.216 315.948 32.064 314.199 30.4C312.45 28.6933 311.575 26.5813 311.575 24.064C311.575 22.1867 312.13 20.5013 313.239 19.008C314.391 17.5147 315.927 16.3627 317.847 15.552C319.81 14.7413 321.964 14.336 324.311 14.336C331.052 14.336 335.554 16.704 337.815 21.44L330.647 24.576C329.367 22.272 327.319 21.12 324.503 21.12C323.052 21.12 321.9 21.3973 321.047 21.952C320.194 22.464 319.767 23.1253 319.767 23.936C319.767 25.472 321.218 26.624 324.119 27.392L328.919 28.544C332.162 29.3547 334.594 30.592 336.215 32.256C337.879 33.92 338.711 35.968 338.711 38.4C338.711 40.4907 338.092 42.3467 336.855 43.968C335.66 45.5467 333.996 46.784 331.863 47.68C329.772 48.576 327.447 49.024 324.887 49.024ZM355.08 49.024C351.624 49.024 348.787 48.0213 346.568 46.016C344.349 43.968 343.24 41.3013 343.24 38.016C343.24 35.84 343.816 33.92 344.968 32.256C346.12 30.592 347.699 29.312 349.704 28.416C351.709 27.52 353.928 27.072 356.36 27.072C359.731 27.072 362.611 27.5627 365 28.544V27.136C365 25.344 364.317 23.8933 362.952 22.784C361.629 21.6747 359.837 21.12 357.576 21.12C356.04 21.12 354.547 21.4827 353.096 22.208C351.688 22.8907 350.515 23.808 349.576 24.96L344.2 20.736C345.779 18.688 347.763 17.1093 350.152 16C352.541 14.8907 355.144 14.336 357.96 14.336C362.952 14.336 366.749 15.488 369.352 17.792C371.955 20.096 373.256 23.4667 373.256 27.904V48H365V44.672H364.488C363.507 45.952 362.205 46.9973 360.584 47.808C359.005 48.6187 357.171 49.024 355.08 49.024ZM357.064 42.496C359.496 42.496 361.416 41.728 362.824 40.192C364.275 38.6133 365 36.7787 365 34.688C362.824 33.664 360.541 33.152 358.152 33.152C353.8 33.152 351.624 34.7733 351.624 38.016C351.624 39.3387 352.093 40.4267 353.032 41.28C353.971 42.0907 355.315 42.496 357.064 42.496Z" fill="white"/>
</svg>
