<svg width="418" height="59" viewBox="0 0 418 59" fill="none" xmlns="http://www.w3.org/2000/svg">
<path d="M14.808 43.456V12.288H5.336C2.84 12.288 0.792 10.24 0.792 7.744C0.792 5.248 2.84 3.2 5.336 3.2H34.136C36.632 3.2 38.68 5.248 38.68 7.744C38.68 10.24 36.632 12.288 34.136 12.288H24.664V43.456C24.664 46.208 22.488 48.384 19.736 48.384C16.984 48.384 14.808 46.208 14.808 43.456ZM45.974 28.16H60.63C60.054 23.808 57.494 20.864 53.398 20.864C49.366 20.864 46.742 23.744 45.974 28.16ZM66.262 44.608C63.254 47.168 59.35 48.768 54.358 48.768C44.054 48.768 36.438 41.536 36.438 31.04V30.912C36.438 21.12 43.414 13.056 53.398 13.056C64.854 13.056 69.91 22.464 69.91 29.568C69.91 32.384 67.926 34.24 65.366 34.24H46.102C47.062 38.656 50.134 40.96 54.486 40.96C57.174 40.96 59.414 40.128 61.398 38.656C62.102 38.144 62.742 37.888 63.766 37.888C65.942 37.888 67.542 39.552 67.542 41.728C67.542 43.008 66.966 43.968 66.262 44.608ZM77.352 43.52V18.176C77.352 15.488 79.528 13.312 82.216 13.312C84.904 13.312 87.08 15.488 87.08 18.176V18.56C89.32 15.68 92.264 13.056 97.192 13.056C101.672 13.056 105.064 15.04 106.856 18.496C109.864 14.976 113.448 13.056 118.12 13.056C125.352 13.056 129.704 17.408 129.704 25.664V43.52C129.704 46.208 127.528 48.384 124.84 48.384C122.152 48.384 119.976 46.208 119.976 43.52V28.864C119.976 24.256 117.928 21.888 114.28 21.888C110.632 21.888 108.392 24.256 108.392 28.864V43.52C108.392 46.208 106.216 48.384 103.528 48.384C100.84 48.384 98.664 46.208 98.664 43.52V28.864C98.664 24.256 96.616 21.888 92.968 21.888C89.32 21.888 87.08 24.256 87.08 28.864V43.52C87.08 46.208 84.904 48.384 82.216 48.384C79.528 48.384 77.352 46.208 77.352 43.52ZM138.165 53.76V18.176C138.165 15.488 140.341 13.312 143.029 13.312C145.717 13.312 147.893 15.488 147.893 18.176V18.624C150.26 15.424 153.525 13.056 158.581 13.056C166.581 13.056 174.197 19.328 174.197 30.784V30.912C174.197 42.368 166.708 48.64 158.581 48.64C153.397 48.64 150.197 46.272 147.893 43.52V53.76C147.893 56.448 145.717 58.624 143.029 58.624C140.341 58.624 138.165 56.448 138.165 53.76ZM156.085 40.384C160.629 40.384 164.469 36.672 164.469 30.912V30.784C164.469 25.088 160.629 21.312 156.085 21.312C151.541 21.312 147.765 25.088 147.765 30.784V30.912C147.765 36.608 151.541 40.384 156.085 40.384ZM191.08 48.64C184.616 48.64 179.304 44.928 179.304 38.144V38.016C179.304 30.528 185 27.072 193.128 27.072C196.584 27.072 199.08 27.648 201.512 28.48V27.904C201.512 23.872 199.016 21.632 194.152 21.632C191.464 21.632 189.288 22.016 187.432 22.592C186.856 22.784 186.472 22.848 186.024 22.848C183.784 22.848 181.992 21.12 181.992 18.88C181.992 17.152 183.08 15.68 184.616 15.104C187.688 13.952 191.016 13.312 195.56 13.312C200.872 13.312 204.712 14.72 207.144 17.152C209.704 19.712 210.856 23.488 210.856 28.096V43.712C210.856 46.336 208.744 48.384 206.12 48.384C203.304 48.384 201.448 46.4 201.448 44.352V44.288C199.08 46.912 195.816 48.64 191.08 48.64ZM194.024 41.92C198.568 41.92 201.64 39.424 201.64 35.904V34.176C199.976 33.408 197.8 32.896 195.432 32.896C191.272 32.896 188.712 34.56 188.712 37.632V37.76C188.712 40.384 190.888 41.92 194.024 41.92ZM230.499 48.576C224.547 48.576 220.515 46.208 220.515 38.272V22.016H220.195C217.891 22.016 216.035 20.16 216.035 17.856C216.035 15.552 217.891 13.696 220.195 13.696H220.515V9.408C220.515 6.72 222.691 4.544 225.379 4.544C228.067 4.544 230.243 6.72 230.243 9.408V13.696H234.531C236.835 13.696 238.691 15.552 238.691 17.856C238.691 20.16 236.835 22.016 234.531 22.016H230.243V36.672C230.243 38.912 231.203 40 233.378 40C233.699 40 234.339 39.936 234.531 39.936C236.707 39.936 238.563 41.728 238.563 43.968C238.563 45.696 237.411 47.104 236.067 47.616C234.275 48.32 232.611 48.576 230.499 48.576ZM265.689 43.456V8.128C265.689 5.376 267.865 3.2 270.617 3.2H283.993C294.681 3.2 301.145 9.536 301.145 18.688V18.816C301.145 29.184 293.081 34.56 283.033 34.56H275.545V43.456C275.545 46.208 273.369 48.384 270.617 48.384C267.865 48.384 265.689 46.208 265.689 43.456ZM275.545 25.792H283.353C288.281 25.792 291.161 22.848 291.161 19.008V18.88C291.161 14.464 288.089 12.096 283.161 12.096H275.545V25.792ZM338.895 18.176V43.52C338.895 46.208 336.719 48.384 334.031 48.384C331.343 48.384 329.167 46.208 329.167 43.52V43.136C326.927 46.016 324.047 48.64 319.119 48.64C311.759 48.64 307.471 43.776 307.471 35.904V18.176C307.471 15.488 309.647 13.312 312.335 13.312C315.023 13.312 317.199 15.488 317.199 18.176V32.832C317.199 37.44 319.375 39.808 323.087 39.808C326.799 39.808 329.167 37.44 329.167 32.832V18.176C329.167 15.488 331.343 13.312 334.031 13.312C336.719 13.312 338.895 15.488 338.895 18.176ZM348.05 43.52V5.76C348.05 3.072 350.226 0.895996 352.914 0.895996C355.602 0.895996 357.778 3.072 357.778 5.76V43.52C357.778 46.208 355.602 48.384 352.914 48.384C350.226 48.384 348.05 46.208 348.05 43.52ZM366.786 5.632V5.504C366.786 2.688 369.155 0.959999 372.227 0.959999C375.299 0.959999 377.667 2.688 377.667 5.504V5.632C377.667 8.448 375.299 10.24 372.227 10.24C369.155 10.24 366.786 8.448 366.786 5.632ZM367.363 43.52V18.176C367.363 15.488 369.539 13.312 372.227 13.312C374.915 13.312 377.091 15.488 377.091 18.176V43.52C377.091 46.208 374.915 48.384 372.227 48.384C369.539 48.384 367.363 46.208 367.363 43.52ZM386.227 43.52V5.76C386.227 3.072 388.403 0.895996 391.091 0.895996C393.779 0.895996 395.955 3.072 395.955 5.76V18.56C398.195 15.68 401.075 13.056 406.003 13.056C413.363 13.056 417.651 17.92 417.651 25.792V43.52C417.651 46.208 415.475 48.384 412.787 48.384C410.099 48.384 407.923 46.208 407.923 43.52V28.864C407.923 24.256 405.747 21.888 402.035 21.888C398.323 21.888 395.955 24.256 395.955 28.864V43.52C395.955 46.208 393.779 48.384 391.091 48.384C388.403 48.384 386.227 46.208 386.227 43.52Z" fill="white"/>
</svg>
