<svg width="418" height="62" viewBox="0 0 418 62" fill="none" xmlns="http://www.w3.org/2000/svg">
<path d="M16.384 25.688L0.96 1.176H11.264L20.416 16.344H20.928L29.76 1.176H40.192L25.024 25.688V47H16.384V25.688ZM54.3995 48.024C51.0288 48.024 48.0208 47.2773 45.3755 45.784C42.7302 44.248 40.6608 42.1787 39.1675 39.576C37.7168 36.9307 36.9915 33.9653 36.9915 30.68C36.9915 27.4373 37.7168 24.4933 39.1675 21.848C40.6608 19.2027 42.7302 17.1333 45.3755 15.64C48.0208 14.104 51.0288 13.336 54.3995 13.336C57.7275 13.336 60.7142 14.104 63.3595 15.64C66.0048 17.1333 68.0528 19.2027 69.5035 21.848C70.9968 24.4933 71.7435 27.4373 71.7435 30.68C71.7435 33.9653 70.9968 36.9307 69.5035 39.576C68.0528 42.1787 66.0048 44.248 63.3595 45.784C60.7142 47.2773 57.7275 48.024 54.3995 48.024ZM54.3995 40.28C56.0208 40.28 57.5142 39.896 58.8795 39.128C60.2448 38.36 61.3328 37.2507 62.1435 35.8C62.9542 34.3493 63.3595 32.6427 63.3595 30.68C63.3595 28.76 62.9542 27.0747 62.1435 25.624C61.3328 24.1733 60.2448 23.064 58.8795 22.296C57.5142 21.528 56.0208 21.144 54.3995 21.144C52.7782 21.144 51.2848 21.528 49.9195 22.296C48.5542 23.064 47.4448 24.1733 46.5915 25.624C45.7808 27.0747 45.3755 28.76 45.3755 30.68C45.3755 32.6 45.7808 34.3067 46.5915 35.8C47.4448 37.2507 48.5542 38.36 49.9195 39.128C51.2848 39.896 52.7782 40.28 54.3995 40.28ZM89.622 48.024C85.6967 48.024 82.71 46.808 80.662 44.376C78.614 41.944 77.59 38.552 77.59 34.2V14.36H85.974V33.176C85.974 35.3947 86.5073 37.144 87.574 38.424C88.6407 39.6613 90.0487 40.28 91.798 40.28C94.1873 40.28 96.086 39.4053 97.494 37.656C98.902 35.9067 99.606 33.688 99.606 31V14.36H107.99V47H100.118V42.904H99.606C98.6247 44.4827 97.238 45.7413 95.446 46.68C93.6967 47.576 91.7553 48.024 89.622 48.024ZM116.159 14.36H124.031V18.456H124.543C125.524 16.8773 126.911 15.64 128.703 14.744C130.495 13.8053 132.436 13.336 134.527 13.336C138.452 13.336 141.439 14.5307 143.487 16.92C145.535 19.3093 146.559 22.5733 146.559 26.712V47H138.175V27.736C138.175 25.6453 137.641 24.024 136.575 22.872C135.508 21.72 134.015 21.144 132.095 21.144C129.833 21.144 127.999 22.0187 126.591 23.768C125.225 25.5173 124.543 27.7147 124.543 30.36V47H116.159V14.36ZM169.199 61.848C165.06 61.848 161.625 60.9093 158.895 59.032C156.164 57.1973 154.329 54.9787 153.391 52.376L161.263 49.176C161.945 50.7973 162.991 52.0773 164.399 53.016C165.807 53.9547 167.407 54.424 169.199 54.424C171.844 54.424 173.935 53.6133 175.471 51.992C177.049 50.3707 177.839 48.0667 177.839 45.08V42.52H177.327C176.303 43.9707 174.959 45.08 173.295 45.848C171.631 46.616 169.732 47 167.599 47C164.911 47 162.393 46.3173 160.047 44.952C157.743 43.544 155.887 41.5813 154.479 39.064C153.071 36.504 152.367 33.5387 152.367 30.168C152.367 26.7973 153.071 23.8533 154.479 21.336C155.887 18.776 157.743 16.8133 160.047 15.448C162.393 14.04 164.911 13.336 167.599 13.336C169.732 13.336 171.631 13.72 173.295 14.488C174.959 15.256 176.303 16.3653 177.327 17.816H177.839V14.36H185.903V44.76C185.903 48.2587 185.22 51.288 183.854 53.848C182.489 56.408 180.548 58.3707 178.031 59.736C175.513 61.144 172.569 61.848 169.199 61.848ZM169.327 39.384C171.673 39.384 173.679 38.5733 175.343 36.952C177.007 35.288 177.839 33.0267 177.839 30.168C177.839 27.224 177.007 24.9627 175.343 23.384C173.721 21.7627 171.716 20.952 169.327 20.952C166.937 20.952 164.911 21.7627 163.247 23.384C161.583 25.0053 160.751 27.2667 160.751 30.168C160.751 33.0693 161.583 35.3307 163.247 36.952C164.911 38.5733 166.937 39.384 169.327 39.384ZM230.63 48.024C226.15 48.024 222.075 46.9787 218.406 44.888C214.779 42.7547 211.921 39.8533 209.83 36.184C207.739 32.5147 206.694 28.4827 206.694 24.088C206.694 19.6933 207.739 15.6613 209.83 11.992C211.921 8.32266 214.779 5.44267 218.406 3.352C222.075 1.21866 226.15 0.151997 230.63 0.151997C235.11 0.151997 239.163 1.21866 242.79 3.352C246.459 5.44267 249.339 8.32266 251.43 11.992C253.521 15.6613 254.566 19.6933 254.566 24.088C254.566 28.4827 253.521 32.5147 251.43 36.184C249.339 39.8533 246.459 42.7547 242.79 44.888C239.163 46.9787 235.11 48.024 230.63 48.024ZM230.63 39.832C233.446 39.832 236.027 39.1707 238.374 37.848C240.721 36.5253 242.555 34.6693 243.878 32.28C245.243 29.8907 245.926 27.16 245.926 24.088C245.926 21.016 245.243 18.2853 243.878 15.896C242.555 13.5067 240.721 11.6507 238.374 10.328C236.027 9.00533 233.446 8.344 230.63 8.344C227.814 8.344 225.233 9.00533 222.886 10.328C220.582 11.6507 218.747 13.5067 217.382 15.896C216.059 18.2853 215.398 21.016 215.398 24.088C215.398 27.16 216.059 29.8907 217.382 32.28C218.747 34.6693 220.582 36.5253 222.886 37.848C225.233 39.1707 227.814 39.832 230.63 39.832ZM261.284 14.36H269.156V18.456H269.668C270.649 16.8773 272.036 15.64 273.828 14.744C275.62 13.8053 277.561 13.336 279.652 13.336C283.577 13.336 286.564 14.5307 288.612 16.92C290.66 19.3093 291.684 22.5733 291.684 26.712V47H283.3V27.736C283.3 25.6453 282.766 24.024 281.7 22.872C280.633 21.72 279.14 21.144 277.22 21.144C274.958 21.144 273.124 22.0187 271.716 23.768C270.35 25.5173 269.668 27.7147 269.668 30.36V47H261.284V14.36ZM322.466 9.368H309.666V1.176H343.906V9.368H331.106V47H322.466V9.368ZM360.15 48.024C356.779 48.024 353.771 47.2773 351.126 45.784C348.48 44.248 346.411 42.1787 344.918 39.576C343.467 36.9307 342.742 33.9653 342.742 30.68C342.742 27.4373 343.467 24.4933 344.918 21.848C346.411 19.2027 348.48 17.1333 351.126 15.64C353.771 14.104 356.779 13.336 360.15 13.336C363.478 13.336 366.464 14.104 369.11 15.64C371.755 17.1333 373.803 19.2027 375.254 21.848C376.747 24.4933 377.494 27.4373 377.494 30.68C377.494 33.9653 376.747 36.9307 375.254 39.576C373.803 42.1787 371.755 44.248 369.11 45.784C366.464 47.2773 363.478 48.024 360.15 48.024ZM360.15 40.28C361.771 40.28 363.264 39.896 364.63 39.128C365.995 38.36 367.083 37.2507 367.894 35.8C368.704 34.3493 369.11 32.6427 369.11 30.68C369.11 28.76 368.704 27.0747 367.894 25.624C367.083 24.1733 365.995 23.064 364.63 22.296C363.264 21.528 361.771 21.144 360.15 21.144C358.528 21.144 357.035 21.528 355.67 22.296C354.304 23.064 353.195 24.1733 352.342 25.624C351.531 27.0747 351.126 28.76 351.126 30.68C351.126 32.6 351.531 34.3067 352.342 35.8C353.195 37.2507 354.304 38.36 355.67 39.128C357.035 39.896 358.528 40.28 360.15 40.28ZM383.34 14.36H391.212V18.328H391.724C392.62 16.92 393.921 15.7467 395.628 14.808C397.335 13.8267 399.297 13.336 401.516 13.336C404.46 13.336 407.127 14.0827 409.516 15.576C411.948 17.0267 413.847 19.0747 415.212 21.72C416.577 24.3653 417.26 27.352 417.26 30.68C417.26 34.0507 416.577 37.0587 415.212 39.704C413.847 42.3067 411.948 44.3547 409.516 45.848C407.127 47.2987 404.46 48.024 401.516 48.024C399.297 48.024 397.313 47.5547 395.564 46.616C393.857 45.6773 392.577 44.504 391.724 43.096H391.212L391.724 47.704V60.824H383.34V14.36ZM400.044 40.28C401.623 40.28 403.095 39.8747 404.46 39.064C405.825 38.2533 406.913 37.1227 407.724 35.672C408.535 34.2213 408.94 32.5573 408.94 30.68C408.94 28.8027 408.535 27.1387 407.724 25.688C406.913 24.2373 405.825 23.128 404.46 22.36C403.095 21.5493 401.623 21.144 400.044 21.144C398.508 21.144 397.057 21.5493 395.692 22.36C394.327 23.128 393.239 24.2373 392.428 25.688C391.617 27.1387 391.212 28.8027 391.212 30.68C391.212 32.5573 391.617 34.2213 392.428 35.672C393.239 37.1227 394.327 38.2533 395.692 39.064C397.057 39.8747 398.508 40.28 400.044 40.28Z" fill="white"/>
</svg>
